<svg xmlns="http://www.w3.org/2000/svg" width="1539.653" height="630.104">
    <defs>
        <clipPath id="a" clipPathUnits="userSpaceOnUse">
            <path d="M0 472.578h1154.738V0H0Z"/>
        </clipPath>
    </defs>
    <g clip-path="url(#a)" transform="matrix(1.33333 0 0 -1.33333 0 630.104)">
        <path d="M0 0v121.738h20.328v-17.856h.111q2.807 6.4 8.255 11.062 5.445 4.659 12.747 7.131 7.298 2.47 15.948 2.471 13.7 0 22.965-5.784 9.265-5.785 13.533-16.677H94q5.613 11.118 15.498 16.846 9.88 5.727 23.471 5.727 13.026 0 22.574-5.222 9.544-5.222 14.711-15.498 5.165-10.277 5.166-24.875V0h-20.215v76.816q0 14.15-7.187 21.956t-20.327 7.805q-9.323 0-15.947-4.155-6.628-4.157-10.221-11.792-3.594-7.638-3.593-17.969V0H77.49v76.816q0 14.037-6.906 21.9-6.908 7.86-19.934 7.861-9.097 0-15.947-4.267-6.851-4.27-10.613-12.017-3.764-7.75-3.762-17.632V0Z" style="fill:#231f20;fill-opacity:1;fill-rule:nonzero;stroke:none" transform="translate(175.42 175.42)"/>
        <path d="M0 0q-.45 10.892-4.885 19.373-4.437 8.477-12.41 13.139-7.974 4.66-18.529 4.661-9.771 0-18.026-4.043t-13.813-12.41T-74.906 0Zm-35.264-74.009q-18.08-.001-31.556 8.143-13.478 8.141-20.778 22.741t-7.298 32.793q-.002 19.315 7.804 33.691 7.805 14.374 21.281 22.068 13.477 7.692 30.211 7.693 16.508 0 29.2-7.468 12.688-7.47 19.652-21.113 6.963-13.646 6.963-31.502 0-2.135-.111-4.267a170 170 0 0 0-.338-4.83h-94.897q1.01-13.027 6.345-22.348 5.334-9.322 14.206-14.038t19.99-4.717q8.31 0 15.33 2.864 7.018 2.863 11.792 8.142 4.773 5.277 6.794 12.241h20.215Q16.846-45.821 9.434-54.917 2.021-64.014-9.489-69.011q-11.513-4.997-25.775-4.998" style="fill:#231f20;fill-opacity:1;fill-rule:nonzero;stroke:none" transform="translate(465.492 246.846)"/>
        <path d="M0 0q-9.996-.001-16.003 2.977-6.01 2.973-8.591 8.422-2.584 5.446-2.584 13.308v79.512h-23.91v17.519h23.91v31.109H-6.85v-31.109h24.322v-17.519H-6.85v-79.4q-.001-3.931 1.628-5.503 1.627-1.572 5.56-1.572h16.91V0Z" style="fill:#231f20;fill-opacity:1;fill-rule:nonzero;stroke:none" transform="translate(545.229 175.42)"/>
        <path d="M0 0q11.343 0 20.439 5.728 9.097 5.726 14.432 16.228 5.333 10.5 5.334 24.426t-5.277 24.482c-3.522 7.037-8.311 12.466-14.375 16.284Q11.456 92.876 0 92.876q-11.344 0-20.494-5.728-9.156-5.728-14.488-16.284-5.335-10.557-5.334-24.482 0-13.926 5.39-24.37t14.487-16.228Q-11.343-.001 0 0m0-17.07q-17.07.001-30.939 7.973-13.872 7.973-21.844 22.518-7.974 14.542-7.973 32.961 0 18.53 7.917 33.017t21.788 22.574q13.867 8.086 31.164 8.086 17.293-.001 31.108-8.03 13.813-8.031 21.619-22.461 7.805-14.432 7.805-33.186 0-18.644-7.916-33.073-7.92-14.433-21.733-22.406T0-17.07" style="fill:#231f20;fill-opacity:1;fill-rule:nonzero;stroke:none" transform="translate(634.789 189.795)"/>
        <path d="M0 0q-23.475 0-36.836 11.287c-8.912 7.525-13.701 18.174-14.375 31.95h20.102q.561-12.465 8.423-19.541 7.86-7.075 22.797-7.075 13.14 0 20.496 5.054 7.355 5.053 7.356 13.813 0 6.402-2.92 10.22t-9.602 6.177q-6.682 2.358-19.148 4.604-15.835 2.807-24.932 6.795-9.097 3.986-13.42 10.557t-4.324 16.452q0 10.892 5.447 19.26 5.446 8.366 16.004 13.028 10.555 4.66 24.819 4.66 14.597 0 25.269-4.604 10.668-4.606 16.451-13.365t6.122-20.664H27.963q-.786 10.444-7.861 16.285-7.076 5.838-20.215 5.839-8.311 0-14.151-2.302t-8.816-6.289q-2.976-3.988-2.975-9.377 0-5.84 2.696-9.209 2.695-3.37 9.095-5.503 6.401-2.135 18.307-4.268 16.396-2.92 25.941-6.963t14.151-10.724q4.605-6.684 4.605-17.015 0-11.68-5.56-20.439-5.558-8.76-16.565-13.702Q15.607.001 0 0" style="fill:#231f20;fill-opacity:1;fill-rule:nonzero;stroke:none" transform="translate(760.111 172.612)"/>
        <path d="M829.728 297.158h20.328V175.42h-20.328zm-.673 42.227h21.676v-23.247h-21.676z" style="fill:#231f20;fill-opacity:1;fill-rule:nonzero;stroke:none"/>
        <path d="M0 0v121.738h20.328v-18.755h.336q5.39 9.882 15.611 15.667 10.217 5.783 23.809 5.784 13.7 0 23.584-5.616 9.88-5.616 15.217-16.508 5.333-10.896 5.334-26.954V0H84.004v73.223q0 15.945-7.693 24.651-7.693 8.702-21.506 8.703-10.67 0-18.418-4.773-7.75-4.774-11.905-13.083-4.154-8.312-4.154-18.418V0Z" style="fill:#231f20;fill-opacity:1;fill-rule:nonzero;stroke:none" transform="translate(875.1 175.42)"/>
    </g>
</svg>
