<svg xmlns="http://www.w3.org/2000/svg" height="590.67" width="177.16"><g fill="#1f9799"><path d="M117.81 254.46c9.13 0 16.266 6.609 21.414 19.812 3.882 10 5.824 20.534 5.824 31.604 0 23.209-5.726 34.81-17.185 34.81-8.159 0-16.071-7.573-23.741-22.719-6.796-13.496-10.196-24.86-10.196-34.084 0-8.156 1.894-14.904 5.681-20.245 4.274-6.118 10.339-9.179 18.204-9.179M102.795 268c-2.869 4.507-8.415 10.593-6.444 15.45 3.581 8.816 7.32 17.377 12.174 26.793 4.953 9.903 13.026 17.434 20.211 21.704 6.7-6.6 10.05-14.514 10.05-23.74 0-8.833-1.59-17.918-4.806-27.234-9.151-26.512-28.318-17.48-31.185-12.974M91.42 145.16c2.05 0 19.929 5.512 38.256 12.686 2.305.899 5.703 2.245 10.188 4.039 3.461 1.538 5.643 3.525 6.536 5.958.515 1.413.769 4.297.769 8.652-.894 0-2.178.161-3.844.481-1.664.319-2.949.481-3.845.481-2.816 0-5.959-1.087-9.421-3.27-4.739-2.946-11.468-10.38-12.496-10.764-3.2-1.027-12.685-3.01-20.761-5.961-5.638-2.175-19.992-7.56-23.838-12.302 3.845-3.846 16.408 0 18.456 0m-49.022-19.995c4.614 0 6.92 3.077 6.92 9.229 0 5.64-2.306 8.458-6.92 8.458-2.308 0-5.509-.736-9.613-2.21-4.1-1.472-7.176-2.275-9.227-2.402.767-1.281 4.422-3.716 10.958-7.308.384-.255 1.537-1.407 3.46-3.46 1.411-1.537 2.884-2.307 4.422-2.307M97.76 373.76c2.395 4.056 3.954 9.079 4.679 15.059.239 1.962.464 4.925.671 8.886.209 3.963.433 6.928.671 8.889.813 6.696 4.698 12.565 11.65 17.612 3.082 2.254 3.852 1.876 13.84 6.546-.027-2.441.028-6.863.157-13.265.127-6.401 1.245-10.275 3.345-11.618 1.375 2.37 3.466 8.41 6.277 18.128 2.48 8.487 5.208 14.54 8.183 18.166 4.355 5.27 12.338 7.436 20.104 6.493 8.484-1.028 9.275-7.983 3.511-29.932-.455-1.742-.6-3.824-1.15-6.113-1.284-5.371-2.014-8.769-2.186-10.199-.606-4.998.286-8.461 2.68-10.38 1.796 2.86 3.86 13.89 6.19 33.083.897 7.41.751 14.045-.441 19.894-1.748 8.729-5.615 13.458-11.598 14.184-1.695.207-2.77-1.326-10.914-4.598-8.142-3.268-13.934-4.92-17.384-4.957l-9.61-5.76-21.785-13.16c-5.32-3.52-6.93-12.47-8.673-26.847-.401-3.3-.492-7.048-.277-11.245.072-.911.757-7.198 2.06-18.865M6.55 1.76c.298 2.874 2.581 6.642 6.64 10.921-.264-.086-.54-.185-.8-.264l1.588 1.076c7.176 7.275 19.349 15.921 35.642 24.188L93.774 67.65S82.454 57.51 67.38 45.81a282.996 282.996 0 0 0 20.874 7.642c18.93 6.107 25.888 19.375 32.68 22.708-4.74 2.947-12.237 5.767-22.491 8.456-12.56 3.335-20.635 5.766-24.223 7.307-8.2 3.588-14.096 8.522-17.686 14.802 3.334 2.05 7.498 3.972 12.496 5.768 10.254 3.844 20.57 3.974 27.105 8.071 1.54 1.028 6.392 4.009 17.301 16.728 9.05 10.546 12.41 7.616 16.535 10.766l4.613-1.346 1.154-2.116c-.51-5.253-2.755-8.266-18.262-20.57-13.2-10.251-19.288-15.955-25.954-20.951 10.126-3.973 16.599-9.038 27.106-11.345 14.226-3.077 40.052-1.473 46.715-2.884l-2.114-7.498c-1.28-3.972-2.178-4.42-2.693-5.188-2.817-3.718-7.175-5.578-13.072-5.578-4.868 0-26.399-6.985-41.522-13.262-10.893-4.485-22.878-9.999-35.95-16.536C52.949 32.456 26.927 13.68 21.93 7.914 18.088 3.427 15.333.798 13.665.03L6.552 1.762z"/><path d="M57.78 295.36c-2.015 3.281 5.192 19.5 3.345 23.069-7.543-21.379-14.278-37.481-14.278-37.481l9.694 34.31c-6.49-4.814-10.462-7.625-11.834-8.364-3.97-2.177-7.56-3.27-10.765-3.27-1.793 0-3.845.866-6.151 2.598-2.308 1.731-3.462 3.428-3.462 5.095 13.072 6.151 21.021 10.062 23.838 11.725 5.873 3.489 10.474 7.359 13.85 11.599l8.446 29.89a102.8 102.8 0 0 1-.187 4.457c-.125 2.18-.19 3.847-.19 5 0 11.41 2.497 17.11 7.497 17.11.128 0 .246-.039.372-.046l3.681 13.03c.043-4.156-.321-8.831-1-13.855a7.118 7.118 0 0 0 2.04-1.916c1.346-1.859 2.02-3.878 2.02-6.058 0-1.663-1.665-7.176-4.998-16.532-1.665-4.74-2.434-8.52-2.308-11.345l.384-6.726 18.455 16.535c16.149 14.482 47.614 29.411 55.944 29.411 14.1 0 10.798-8.176 4.519-8.176-7.317 0-43.04-21.955-59.404-33.251-10.788-7.448-21.78-14.486-22.426-23.458-1.213-16.845-7.035-26.68-7.66-29.121-1.98-7.735-6.472-7.818-9.422-4.229M44.8 424.56a182.022 182.022 0 0 1-2.69 5.192c0 3.57 5.594 10.855 16.764 21.834-6.004-4.286-12.035-7.942-17.002-9.632l30.312 22.302 25.484 24.13c12.818 12.176 19.224 20.376 19.224 24.606v1.729c-25.63 2.822-39.665 4.551-42.101 5.191-9.354 2.437-16.275 6.152-20.761 11.15 2.949 3.206 5.896 5.257 8.843 6.152 4.998 1.537 15.638-3.2 16.534-2.69.903 1.744 1.945 3.093 3.266 4.297-.133-.01-.275-.034-.408-.043l.658.265c4.15 3.627 11.042 6.013 25.03 14.088 20.516 11.84 35.216 19.842 42.776 23.302l23.069 14.224c0-8.583-6.023-11.34-18.07-19.8-3.281-2.301-7.513-4.803-12.591-7.48l30.32 12.254s-44.557-25.404-76.631-34.094c-4.598-2.445-8.45-4.726-11.46-6.821 2.05-.512 9.227-1.217 21.532-2.115 19.738-1.41 29.606-4.805 29.606-10.19 0-4.228-10.638-17.11-20.38-27.105l-28.26-29.03c-11.15-11.534-17.558-18.968-19.224-22.3 7.689 0 23.454 8.526 35.758 12.11l22.876 10.575c12.564 7.563 27.238-2.18 16.34-5.768-10.265-3.27-15.694-4.944-19.8-6.151-12.43-5.124-15.572-1.218-20.954-3.653-18.071-8.076-23.261-12.88-27.108-14.418-11.534-4.74-20.056-13.392-25.568-14.42L44.8 424.56z"/><path d="M38.46 243.56c-1.356-3.759-7.175-21.234-13.768-53.262C19.939 167.207 10.297 158.646 0 158.646c6.387 0 17.056 29.282 25.182 55.01a397.19 397.19 0 0 1 5.126 17.984c-6.112-20.712-14.9-45.609-24.798-58.48l32.614 89.598c1.206 4.242 2.465 8 3.945 11.271 9.028 20.164 17.681 30.242 25.955 30.242 8.728 0 14.445-9.48 17.151-28.438 3.464-25.276 5.795-42.805 6.998-52.585 2.858-18.805 9.57-28.802 20.085-28.21 56.288 3.161 63.986 113.32 51.14 149.11-5.287 14.725-4.704 30.541.677 22.226 14.838-22.919 13.1-49.826 12.954-69.484-.105-14.464-11.888-54.412-19.96-77.492l14.292 34.466s-9.808-38.329-21.284-51.635c-9.534-17.001-26.355-25.249-38.724-25.249-8.874 0-16.25 7.896-22.116 23.696-2.855 7.528-6.466 23.021-10.832 46.492-3.91 20.764-4.195 39.911-11.06 41.979-6.864 2.066-21.665-24.672-28.887-45.589"/></g></svg>