<?xml version="1.0" encoding="UTF-8" standalone="no"?>
<!-- Created with Inkscape (http://www.inkscape.org/) -->

<svg
   version="1.1"
   id="svg2"
   width="1539.6533"
   height="630.104"
   viewBox="0 0 1539.6533 630.104"
   sodipodi:docname="Metosin_Logo_FINAL_06-2023_1.svg"
   inkscape:version="1.2.2 (b0a8486541, 2022-12-01)"
   xmlns:inkscape="http://www.inkscape.org/namespaces/inkscape"
   xmlns:sodipodi="http://sodipodi.sourceforge.net/DTD/sodipodi-0.dtd"
   xmlns="http://www.w3.org/2000/svg"
   xmlns:svg="http://www.w3.org/2000/svg">
  <defs
     id="defs6">
    <clipPath
       clipPathUnits="userSpaceOnUse"
       id="clipPath16">
      <path
         d="M 0,472.578 H 1154.738 V 0 H 0 Z"
         id="path14" />
    </clipPath>
  </defs>
  <sodipodi:namedview
     id="namedview4"
     pagecolor="#ffffff"
     bordercolor="#666666"
     borderopacity="1.0"
     inkscape:showpageshadow="2"
     inkscape:pageopacity="0.0"
     inkscape:pagecheckerboard="0"
     inkscape:deskcolor="#d1d1d1"
     showgrid="false"
     inkscape:zoom="0.84044894"
     inkscape:cx="610.38806"
     inkscape:cy="313.52291"
     inkscape:window-width="1702"
     inkscape:window-height="531"
     inkscape:window-x="0"
     inkscape:window-y="0"
     inkscape:window-maximized="1"
     inkscape:current-layer="g8" />
  <g
     id="g8"
     inkscape:groupmode="layer"
     inkscape:label="Metosin_Logo_FINAL_06-2023"
     transform="matrix(1.3333333,0,0,-1.3333333,0,630.104)">
    <g
       id="g10">
      <g
         id="g12"
         clip-path="url(#clipPath16)">
        <g
           id="g18"
           transform="translate(175.4199,175.4199)">
          <path
             d="m 0,0 v 121.738 h 20.328 v -17.856 h 0.111 c 1.872,4.267 4.623,7.954 8.255,11.062 3.63,3.106 7.879,5.483 12.747,7.131 4.866,1.646 10.181,2.471 15.948,2.471 9.132,0 16.789,-1.929 22.965,-5.784 6.177,-3.857 10.687,-9.416 13.533,-16.677 H 94 c 3.742,7.412 8.908,13.027 15.498,16.846 6.587,3.818 14.411,5.727 23.471,5.727 8.684,0 16.209,-1.741 22.574,-5.222 6.362,-3.481 11.267,-8.647 14.711,-15.498 3.443,-6.851 5.166,-15.144 5.166,-24.875 V 0 h -20.215 v 76.816 c 0,9.434 -2.396,16.751 -7.187,21.956 -4.792,5.203 -11.567,7.805 -20.327,7.805 -6.215,0 -11.531,-1.386 -15.947,-4.155 C 107.325,99.651 103.919,95.72 101.523,90.63 99.127,85.538 97.93,79.549 97.93,72.661 V 0 H 77.49 v 76.816 c 0,9.358 -2.302,16.658 -6.906,21.9 -4.605,5.24 -11.25,7.861 -19.934,7.861 -6.064,0 -11.381,-1.423 -15.947,-4.267 C 30.135,99.463 26.598,95.459 24.09,90.293 21.58,85.127 20.328,79.249 20.328,72.661 V 0 Z"
             style="fill:#231f20;fill-opacity:1;fill-rule:nonzero;stroke:none"
             id="path20" />
        </g>
        <g
           id="g22"
           transform="translate(465.4922,246.8457)">
          <path
             d="m 0,0 c -0.3,7.262 -1.928,13.719 -4.885,19.373 -2.959,5.651 -7.094,10.031 -12.41,13.139 -5.316,3.106 -11.493,4.661 -18.529,4.661 -6.514,0 -12.523,-1.348 -18.026,-4.043 C -59.353,30.435 -63.957,26.297 -67.663,20.72 -71.369,15.142 -73.783,8.235 -74.906,0 Z m -35.264,-74.009 c -12.054,0 -22.572,2.713 -31.556,8.143 -8.985,5.427 -15.911,13.008 -20.778,22.741 -4.867,9.732 -7.298,20.664 -7.298,32.793 0,12.877 2.599,24.107 7.804,33.691 5.203,9.583 12.297,16.939 21.281,22.068 8.985,5.128 19.054,7.693 30.211,7.693 11.006,0 20.738,-2.49 29.2,-7.468 8.459,-4.98 15.009,-12.017 19.652,-21.113 4.642,-9.097 6.963,-19.598 6.963,-31.502 0,-1.423 -0.038,-2.846 -0.111,-4.267 -0.077,-1.423 -0.189,-3.033 -0.338,-4.83 h -94.897 c 0.674,-8.685 2.787,-16.134 6.345,-22.348 3.556,-6.215 8.291,-10.894 14.206,-14.038 5.914,-3.145 12.578,-4.717 19.99,-4.717 5.54,0 10.651,0.955 15.33,2.864 4.678,1.909 8.61,4.622 11.792,8.142 3.181,3.518 5.447,7.598 6.794,12.241 h 20.215 c -1.797,-7.937 -5.166,-14.937 -10.107,-21.001 -4.942,-6.064 -11.25,-10.764 -18.923,-14.094 -7.675,-3.331 -16.267,-4.998 -25.775,-4.998"
             style="fill:#231f20;fill-opacity:1;fill-rule:nonzero;stroke:none"
             id="path24" />
        </g>
        <g
           id="g26"
           transform="translate(545.2286,175.4199)">
          <path
             d="m 0,0 c -6.664,0 -11.998,0.991 -16.003,2.977 -4.007,1.982 -6.87,4.79 -8.591,8.422 -1.723,3.63 -2.584,8.067 -2.584,13.308 v 79.512 h -23.91 v 17.519 h 23.91 v 31.109 H -6.85 V 121.738 H 17.472 V 104.219 H -6.85 v -79.4 c 0,-2.621 0.541,-4.455 1.628,-5.503 1.085,-1.048 2.938,-1.572 5.56,-1.572 h 16.91 L 17.248,0 Z"
             style="fill:#231f20;fill-opacity:1;fill-rule:nonzero;stroke:none"
             id="path28" />
        </g>
        <g
           id="g30"
           transform="translate(634.7888,189.7949)">
          <path
             d="m 0,0 c 7.562,0 14.375,1.909 20.439,5.728 6.065,3.818 10.875,9.226 14.432,16.228 3.555,6.999 5.334,15.142 5.334,24.426 0,9.283 -1.76,17.444 -5.277,24.482 C 31.406,77.901 26.617,83.33 20.553,87.148 14.488,90.967 7.637,92.876 0,92.876 c -7.562,0 -14.395,-1.909 -20.494,-5.728 -6.104,-3.818 -10.934,-9.247 -14.488,-16.284 -3.557,-7.038 -5.334,-15.199 -5.334,-24.482 0,-9.284 1.796,-17.407 5.39,-24.37 3.594,-6.963 8.422,-12.373 14.487,-16.228 C -14.375,1.927 -7.562,0 0,0 m 0,-17.07 c -11.381,0 -21.693,2.659 -30.939,7.973 -9.249,5.316 -16.529,12.821 -21.844,22.518 -5.317,9.694 -7.973,20.682 -7.973,32.961 0,12.353 2.639,23.359 7.917,33.017 5.278,9.659 12.54,17.183 21.788,22.574 9.244,5.39 19.633,8.086 31.164,8.086 11.528,0 21.899,-2.678 31.108,-8.03 C 40.43,96.675 47.635,89.188 52.84,79.568 58.043,69.946 60.645,58.885 60.645,46.382 60.645,33.953 58.006,22.928 52.729,13.309 47.449,3.687 40.205,-3.781 30.996,-9.097 21.787,-14.411 11.455,-17.07 0,-17.07"
             style="fill:#231f20;fill-opacity:1;fill-rule:nonzero;stroke:none"
             id="path32" />
        </g>
        <g
           id="g34"
           transform="translate(760.1111,172.6123)">
          <path
             d="m 0,0 c -15.65,0 -27.928,3.763 -36.836,11.287 -8.912,7.525 -13.701,18.174 -14.375,31.95 h 20.102 c 0.375,-8.31 3.181,-14.824 8.423,-19.541 5.239,-4.717 12.84,-7.075 22.797,-7.075 8.76,0 15.592,1.685 20.496,5.054 4.903,3.369 7.356,7.973 7.356,13.813 0,4.268 -0.973,7.674 -2.92,10.22 -1.947,2.545 -5.148,4.605 -9.602,6.177 -4.455,1.572 -10.837,3.106 -19.148,4.604 -10.557,1.871 -18.867,4.136 -24.932,6.795 -6.064,2.656 -10.539,6.177 -13.42,10.557 -2.882,4.38 -4.324,9.863 -4.324,16.452 0,7.261 1.815,13.682 5.447,19.26 3.631,5.577 8.965,9.92 16.004,13.028 7.036,3.106 15.311,4.66 24.819,4.66 9.732,0 18.154,-1.535 25.269,-4.604 7.112,-3.071 12.596,-7.525 16.451,-13.365 3.856,-5.839 5.897,-12.729 6.122,-20.664 H 27.963 c -0.524,6.963 -3.145,12.391 -7.861,16.285 -4.717,3.892 -11.456,5.839 -20.215,5.839 -5.541,0 -10.258,-0.768 -14.151,-2.302 -3.892,-1.535 -6.832,-3.632 -8.816,-6.289 -1.984,-2.659 -2.975,-5.784 -2.975,-9.377 0,-3.894 0.899,-6.963 2.696,-9.209 1.797,-2.246 4.828,-4.081 9.095,-5.503 4.268,-1.423 10.369,-2.846 18.307,-4.268 10.93,-1.947 19.578,-4.267 25.941,-6.963 6.364,-2.695 11.08,-6.271 14.151,-10.724 3.07,-4.456 4.605,-10.127 4.605,-17.015 0,-7.787 -1.853,-14.6 -5.56,-20.439 C 39.475,12.803 33.953,8.235 26.615,4.941 19.277,1.648 10.404,0 0,0"
             style="fill:#231f20;fill-opacity:1;fill-rule:nonzero;stroke:none"
             id="path36" />
        </g>
        <path
           d="m 829.728,297.158 h 20.328 V 175.42 h -20.328 z m -0.673,42.227 h 21.676 v -23.247 h -21.676 z"
           style="fill:#231f20;fill-opacity:1;fill-rule:nonzero;stroke:none"
           id="path38" />
        <g
           id="g40"
           transform="translate(875.0995,175.4199)">
          <path
             d="m 0,0 v 121.738 h 20.328 v -18.755 h 0.336 c 3.594,6.588 8.797,11.81 15.611,15.667 6.811,3.855 14.748,5.784 23.809,5.784 9.133,0 16.994,-1.873 23.584,-5.616 6.586,-3.744 11.66,-9.247 15.217,-16.508 3.554,-7.264 5.334,-16.248 5.334,-26.954 V 0 H 84.004 v 73.223 c 0,10.63 -2.565,18.847 -7.693,24.651 -5.129,5.801 -12.297,8.703 -21.506,8.703 -7.114,0 -13.252,-1.592 -18.418,-4.773 C 31.221,98.621 27.252,94.26 24.482,88.721 21.713,83.179 20.328,77.041 20.328,70.303 V 0 Z"
             style="fill:#231f20;fill-opacity:1;fill-rule:nonzero;stroke:none"
             id="path42" />
        </g>
      </g>
    </g>
  </g>
</svg>
