<?xml version="1.0" encoding="UTF-8" standalone="no"?>
<svg id="svg4274" xmlns:rdf="http://www.w3.org/1999/02/22-rdf-syntax-ns#" xmlns="http://www.w3.org/2000/svg" height="590.67" width="177.16" version="1.1" xmlns:cc="http://creativecommons.org/ns#" xmlns:dc="http://purl.org/dc/elements/1.1/">
 <g id="layer1" transform="translate(-225.7 197.26)">
  <g id="g4301" transform="matrix(0 -1 1 0 -103.79 1578.1)" fill="#1f9799">
   <path id="path4227" d="m1520.9 447.3c0 9.13-6.6087 16.266-19.812 21.414-10 3.8825-20.534 5.8238-31.604 5.8238-23.209 0-34.81-5.7262-34.81-17.185 0-8.1588 7.5725-16.071 22.719-23.741 13.496-6.7962 24.86-10.196 34.084-10.196 8.1562 0 14.904 1.8938 20.245 5.6812 6.1175 4.2738 9.1787 10.339 9.1787 18.204m-13.539-15.016c-4.5075-2.8688-10.594-8.415-15.45-6.4438-8.8163 3.5812-17.378 7.32-26.794 12.174-9.9025 4.9525-17.434 13.026-21.704 20.211 6.6012 6.7 14.514 10.049 23.74 10.049 8.8337 0 17.918-1.5888 27.234-4.805 26.512-9.1512 17.48-28.318 12.974-31.185"/>
   <path id="path4231" d="m1630.2 420.91c0 2.05-5.5125 19.929-12.686 38.256-0.8987 2.305-2.245 5.7025-4.0387 10.188-1.5388 3.4612-3.525 5.6425-5.9588 6.5362-1.4125 0.515-4.2962 0.76875-8.6512 0.76875 0-0.89375-0.1613-2.1775-0.4813-3.8438-0.3187-1.6638-0.4812-2.9488-0.4812-3.845 0-2.8162 1.0875-5.9588 3.27-9.4212 2.9462-4.7388 10.38-11.468 10.764-12.496 1.0275-3.2 3.01-12.685 5.9613-20.761 2.175-5.6375 7.56-19.992 12.302-23.838 3.8462 3.845 0 16.408 0 18.456m19.995-49.022c0 4.6138-3.0775 6.92-9.2288 6.92-5.64 0-8.4587-2.3062-8.4587-6.92 0-2.3075 0.7362-5.5088 2.21-9.6125 1.4725-4.1 2.275-7.1762 2.4025-9.2275 1.2812 0.7675 3.7162 4.4225 7.3075 10.958 0.255 0.38375 1.4075 1.5375 3.46 3.46 1.5375 1.4112 2.3075 2.8838 2.3075 4.4225"/>
   <path id="path4235" d="m1401.6 427.25c-4.0563 2.395-9.0788 3.9538-15.059 4.6788-1.9625 0.23875-4.925 0.46375-8.8862 0.67125-3.9625 0.20875-6.9275 0.4325-8.8888 0.67125-6.6962 0.8125-12.565 4.6975-17.612 11.649-2.2537 3.0825-1.8762 3.8525-6.5462 13.84 2.4412-0.0263 6.8637 0.0288 13.265 0.1575 6.4012 0.1275 10.275 1.245 11.618 3.345-2.37 1.375-8.41 3.4662-18.128 6.2775-8.4863 2.4788-14.54 5.2075-18.166 8.1825-5.27 4.355-7.4362 12.338-6.4925 20.104 1.0275 8.4838 7.9825 9.275 29.932 3.5112 1.7413-0.455 3.8238-0.6 6.1125-1.15 5.3713-1.2838 8.7688-2.0138 10.199-2.1862 4.9987-0.60625 8.4612 0.28625 10.381 2.68-2.86 1.7962-13.89 3.86-33.084 6.19-7.41 0.8975-14.045 0.75125-19.894-0.44125-8.7287-1.7475-13.458-5.615-14.184-11.598-0.2063-1.695 1.3262-2.77 4.5987-10.914 3.2675-8.1412 4.92-13.934 4.9563-17.384l5.76-9.6088 13.161-21.786c3.52-5.3188 12.47-6.9288 26.846-8.6725 3.3-0.40125 7.0487-0.4925 11.245-0.2775 0.9112 0.0725 7.1987 0.7575 18.865 2.06"/>
   <path id="path4239" d="m1773.6 336.04c-2.8738 0.2975-6.6425 2.5812-10.921 6.64 0.086-0.26375 0.185-0.54 0.2638-0.8l-1.0763 1.5875c-7.275 7.1762-15.921 19.349-24.188 35.642l-29.968 44.154s10.139-11.319 21.839-26.394c-2.6838 6.5188-5.2575 13.482-7.6413 20.874-6.1075 18.93-19.375 25.889-22.708 32.681-2.9475-4.74-5.7675-12.238-8.4562-22.492-3.335-12.559-5.7663-20.634-7.3075-24.222-3.5875-8.2012-8.5213-14.096-14.802-17.686-2.05 3.3338-3.9713 7.4975-5.7675 12.496-3.8438 10.254-3.9738 20.569-8.0713 27.105-1.0275 1.5388-4.0087 6.3912-16.728 17.301-10.546 9.0488-7.6162 12.409-10.766 16.535l1.3462 4.6125 2.1163 1.1538c5.2525-0.51 8.2662-2.755 20.569-18.262 10.252-13.199 15.956-19.288 20.952-25.954 3.9725 10.126 9.0375 16.599 11.345 27.106 3.0763 14.226 1.4725 40.052 2.8838 46.715l7.4975-2.1138c3.9725-1.28 4.4212-2.1775 5.1887-2.6925 3.7175-2.8175 5.5775-7.175 5.5775-13.072 0-4.8688 6.985-26.399 13.262-41.522 4.485-10.894 9.9988-22.879 16.536-35.951 8.3287-17.042 27.104-43.064 32.871-48.061 4.485-3.8438 7.1138-6.5988 7.8825-8.2662l-1.7312-7.1125z"/>
   <path id="path4243" d="m1480 387.27c-3.2813-2.015-19.5 5.1925-23.069 3.345 21.379-7.5425 37.481-14.278 37.481-14.278l-34.31 9.6938c4.8137-6.49 7.625-10.462 8.3637-11.834 2.1775-3.97 3.27-7.56 3.27-10.765 0-1.7925-0.8662-3.845-2.5975-6.1512-1.7312-2.3075-3.4287-3.4612-5.095-3.4612-6.1512 13.072-10.062 21.021-11.725 23.838-3.4887 5.8725-7.3587 10.474-11.599 13.849l-29.89 8.4462c-1.1163-0.0162-2.5875-0.075-4.4575-0.18625-2.18-0.125-3.8463-0.19125-4.9988-0.19125-11.41 0-17.111 2.4975-17.111 7.4975 0 0.12875 0.039 0.24625 0.046 0.3725l-13.03 3.6812c4.1562 0.0425 8.8312-0.32125 13.855-1.0012 0.4612 0.74875 1.0812 1.435 1.9162 2.0412 1.8588 1.3462 3.8775 2.0188 6.0575 2.0188 1.6638 0 7.1763-1.6638 16.532-4.9975 4.74-1.665 8.5213-2.4338 11.345-2.3075l6.7263 0.38375-16.535 18.455c-14.482 16.149-29.411 47.614-29.411 55.944 0 14.101 8.1762 10.798 8.1762 4.5188 0-7.3162 21.955-43.04 33.251-59.404 7.4475-10.788 14.486-21.78 23.458-22.426 16.845-1.2125 26.68-7.035 29.121-7.66 7.735-1.9788 7.8175-6.4712 4.2288-9.4212"/>
   <path id="path4247" d="m1350.8 374.29c-1.7963-0.895-3.5275-1.7925-5.1925-2.69-3.5688 0-10.855 5.5938-21.834 16.764 4.2863-6.0038 7.9425-12.035 9.6325-17.002l-22.302 30.312-24.13 25.484c-12.176 12.818-20.376 19.224-24.606 19.224h-1.7288c-2.8225-25.63-4.5512-39.665-5.1912-42.101-2.4375-9.3538-6.1525-16.275-11.15-20.761-3.2063 2.9488-5.2575 5.8962-6.1525 8.8425-1.5363 4.9988 3.2012 15.638 2.69 16.534-1.7438 0.90375-3.0925 1.945-4.2963 3.2662 0.01-0.1325 0.034-0.275 0.043-0.4075l-0.265 0.6575c-3.6275 4.15-6.0137 11.042-14.088 25.031-11.841 20.515-19.842 35.215-23.302 42.775l-14.224 23.069c8.5825 0 11.34-6.0225 19.8-18.07 2.3012-3.2812 4.8025-7.5125 7.48-12.591l-12.254 30.321s25.404-44.558 34.094-76.632c2.445-4.5975 4.7262-8.45 6.8212-11.46 0.5113 2.0512 1.2163 9.2275 2.115 21.532 1.4088 19.738 4.805 29.606 10.189 29.606 4.2287 0 17.11-10.638 27.106-20.38l29.029-28.259c11.535-11.15 18.969-17.559 22.301-19.225 0 7.6888-8.5262 23.454-12.11 35.758l-10.575 22.876c-7.5637 12.564 2.1788 27.238 5.7675 16.341 3.27-10.266 4.9438-15.695 6.1513-19.801 5.1237-12.43 1.2175-15.572 3.6525-20.954 8.0762-18.071 12.88-23.261 14.418-27.108 4.7412-11.534 13.392-20.056 14.42-25.568l-2.3075-5.3838z"/>
   <path id="path4251" d="m1531.8 367.95c3.7588-1.3562 21.234-7.175 53.262-13.768 23.091-4.7525 31.652-14.395 31.652-24.692 0 6.3875-29.282 17.056-55.01 25.182-6.4312 2.0062-12.409 3.6688-17.984 5.1262 20.712-6.1125 45.609-14.901 58.48-24.798l-89.598 32.614c-4.2425 1.2062-8 2.465-11.271 3.945-20.164 9.0275-30.242 17.681-30.242 25.955 0 8.7275 9.48 14.445 28.438 17.151 25.276 3.4638 42.805 5.795 52.585 6.9975 18.805 2.8588 28.802 9.5712 28.21 20.085-3.1612 56.288-113.32 63.986-149.11 51.141-14.725-5.2875-30.541-4.705-22.226 0.67625 22.919 14.838 49.826 13.101 69.484 12.954 14.464-0.105 54.412-11.888 77.492-19.96l-34.466 14.292s38.329-9.8075 51.635-21.284c17.001-9.5338 25.249-26.355 25.249-38.724 0-8.8738-7.8963-16.249-23.696-22.116-7.5275-2.855-23.021-6.4662-46.492-10.832-20.764-3.91-39.911-4.195-41.979-11.059-2.0663-6.865 24.672-21.666 45.589-28.888"/>
  </g>
 </g>
</svg>
