<svg xmlns="http://www.w3.org/2000/svg" height="177.16" width="590.67"><g fill="#1f9799"><path d="M336.251 117.806c0 9.13-6.609 16.266-19.812 21.414-10 3.882-20.534 5.824-31.604 5.824-23.209 0-34.81-5.726-34.81-17.185 0-8.159 7.572-16.071 22.719-23.741 13.496-6.796 24.86-10.196 34.084-10.196 8.156 0 14.904 1.894 20.245 5.681 6.117 4.274 9.179 10.339 9.179 18.204m-13.54-15.016c-4.507-2.869-10.593-8.415-15.45-6.444-8.816 3.581-17.377 7.32-26.793 12.174-9.903 4.953-17.434 13.026-21.704 20.211 6.6 6.7 14.514 10.05 23.74 10.05 8.833 0 17.918-1.59 27.234-4.806 26.512-9.151 17.48-28.318 12.974-31.185M445.551 91.416c0 2.05-5.513 19.929-12.686 38.256-.899 2.305-2.245 5.702-4.039 10.188-1.539 3.461-3.525 5.642-5.959 6.536-1.412.515-4.296.769-8.65.769 0-.894-.162-2.178-.482-3.844-.319-1.664-.481-2.949-.481-3.845 0-2.816 1.087-5.959 3.27-9.421 2.946-4.739 10.38-11.468 10.764-12.496 1.027-3.2 3.01-12.685 5.961-20.761 2.175-5.638 7.56-19.992 12.302-23.838 3.846 3.845 0 16.408 0 18.456m19.995-49.022c0 4.614-3.077 6.92-9.229 6.92-5.64 0-8.458-2.306-8.458-6.92 0-2.308.736-5.509 2.21-9.613 1.472-4.1 2.275-7.176 2.402-9.227 1.281.767 3.716 4.422 7.308 10.958.255.384 1.407 1.537 3.46 3.46 1.537 1.411 2.307 2.884 2.307 4.422M216.951 97.756c-4.056 2.395-9.079 3.954-15.059 4.679-1.963.239-4.925.464-8.886.671-3.963.209-6.928.433-8.889.671-6.696.813-12.565 4.698-17.612 11.65-2.254 3.082-1.876 3.852-6.546 13.84 2.441-.027 6.863.028 13.265.157 6.401.127 10.275 1.245 11.618 3.345-2.37 1.375-8.41 3.466-18.128 6.277-8.487 2.48-14.54 5.208-18.166 8.183-5.27 4.355-7.436 12.338-6.493 20.104 1.028 8.484 7.983 9.275 29.932 3.511 1.742-.455 3.824-.6 6.113-1.15 5.371-1.284 8.769-2.014 10.199-2.186 4.998-.606 8.461.286 10.38 2.68-2.86 1.796-13.89 3.86-33.083 6.19-7.41.897-14.045.751-19.894-.441-8.729-1.748-13.458-5.615-14.184-11.598-.207-1.695 1.326-2.77 4.598-10.914 3.268-8.142 4.92-13.934 4.957-17.384l5.76-9.61 13.16-21.785c3.52-5.32 12.47-6.93 26.847-8.673 3.3-.401 7.048-.492 11.245-.277.911.072 7.198.757 18.865 2.06M588.951 6.546c-2.874.297-6.643 2.581-10.921 6.64.086-.264.185-.54.264-.8l-1.077 1.587c-7.275 7.177-15.92 19.35-24.188 35.642L523.061 93.77s10.14-11.319 21.84-26.394a282.996 282.996 0 0 0-7.642 20.874c-6.107 18.93-19.375 25.89-22.708 32.681-2.947-4.74-5.767-12.238-8.456-22.492-3.335-12.559-5.766-20.634-7.308-24.222-3.587-8.2-8.52-14.096-14.802-17.686-2.05 3.334-3.97 7.498-5.767 12.496-3.844 10.254-3.974 20.57-8.071 27.105-1.028 1.54-4.009 6.392-16.728 17.301-10.546 9.05-7.617 12.41-10.766 16.535l1.346 4.613 2.116 1.154c5.253-.51 8.266-2.755 20.57-18.262 10.251-13.2 15.955-19.288 20.951-25.954 3.973 10.126 9.038 16.599 11.345 27.106 3.076 14.226 1.473 40.052 2.884 46.715l7.497-2.114c3.973-1.28 4.422-2.178 5.19-2.693 3.717-2.817 5.577-7.175 5.577-13.072 0-4.868 6.985-26.399 13.262-41.522 4.485-10.894 9.998-22.879 16.536-35.95 8.328-17.043 27.104-43.065 32.87-48.062 4.486-3.843 7.114-6.598 7.883-8.266l-1.731-7.112z"/><path d="M295.351 57.776c-3.281-2.015-19.5 5.192-23.069 3.345 21.379-7.543 37.481-14.278 37.481-14.278l-34.31 9.694c4.814-6.49 7.625-10.462 8.364-11.834 2.177-3.97 3.27-7.56 3.27-10.765 0-1.793-.867-3.845-2.598-6.151-1.731-2.308-3.429-3.462-5.095-3.462-6.151 13.072-10.062 21.021-11.725 23.838-3.489 5.873-7.359 10.474-11.599 13.85l-29.89 8.446a102.8 102.8 0 0 1-4.457-.187c-2.18-.125-3.847-.19-5-.19-11.41 0-17.11 2.497-17.11 7.497 0 .128.039.246.046.372l-13.03 3.681c4.156.043 8.831-.321 13.855-1a7.118 7.118 0 0 0 1.916 2.04c1.859 1.346 3.878 2.02 6.058 2.02 1.663 0 7.176-1.665 16.532-4.998 4.74-1.665 8.52-2.434 11.345-2.308l6.726.384-16.535 18.455c-14.482 16.149-29.411 47.614-29.411 55.944 0 14.1 8.176 10.798 8.176 4.519 0-7.317 21.955-43.04 33.251-59.404 7.448-10.788 14.486-21.78 23.458-22.426 16.845-1.213 26.68-7.035 29.121-7.66 7.735-1.98 7.818-6.472 4.229-9.422M166.151 44.796a182.022 182.022 0 0 1-5.193-2.69c-3.568 0-10.855 5.594-21.834 16.764 4.287-6.004 7.943-12.035 9.633-17.002L126.455 72.18l-24.13 25.484c-12.176 12.818-20.376 19.224-24.606 19.224H75.99c-2.822-25.63-4.551-39.665-5.191-42.101-2.438-9.354-6.153-16.275-11.15-20.761-3.206 2.949-5.258 5.896-6.153 8.842-1.536 5 3.202 15.638 2.69 16.534-1.743.904-3.092 1.946-4.296 3.267.01-.133.034-.275.043-.408l-.265.658c-3.627 4.15-6.014 11.042-14.088 25.03-11.84 20.516-19.842 35.216-23.302 42.776L.054 173.794c8.583 0 11.34-6.023 19.8-18.07 2.301-3.281 4.803-7.513 7.48-12.591l-12.254 30.32s25.404-44.557 34.094-76.631c2.445-4.598 4.726-8.45 6.821-11.46.512 2.05 1.217 9.227 2.115 21.532 1.41 19.738 4.805 29.606 10.19 29.606 4.228 0 17.11-10.638 27.105-20.38l29.03-28.26c11.534-11.15 18.968-17.558 22.3-19.224 0 7.688-8.526 23.454-12.11 35.758L124.05 127.27c-7.563 12.564 2.18 27.238 5.768 16.34 3.27-10.265 4.944-15.694 6.151-19.8 5.124-12.43 1.218-15.572 3.653-20.954 8.076-18.071 12.88-23.261 14.418-27.108 4.74-11.534 13.392-20.056 14.42-25.568l-2.308-5.384z"/><path d="M347.151 38.456c3.759-1.356 21.234-7.175 53.262-13.768 23.091-4.753 31.652-14.395 31.652-24.692 0 6.387-29.282 17.056-55.01 25.182a397.19 397.19 0 0 1-17.984 5.126c20.712-6.112 45.609-14.9 58.48-24.798L327.953 38.12c-4.243 1.206-8 2.465-11.271 3.945-20.164 9.028-30.242 17.681-30.242 25.955 0 8.728 9.48 14.445 28.438 17.151 25.276 3.464 42.805 5.795 52.585 6.998 18.805 2.858 28.802 9.57 28.21 20.085-3.161 56.288-113.32 63.986-149.11 51.14-14.725-5.287-30.541-4.704-22.226.677 22.919 14.838 49.826 13.1 69.484 12.954 14.464-.105 54.412-11.888 77.492-19.96l-34.466 14.292s38.329-9.808 51.635-21.284c17.001-9.534 25.249-26.355 25.249-38.724 0-8.874-7.896-16.25-23.696-22.116-7.528-2.855-23.021-6.466-46.492-10.832-20.764-3.91-39.911-4.195-41.979-11.06-2.066-6.864 24.672-21.665 45.589-28.887"/></g></svg>