<svg xmlns="http://www.w3.org/2000/svg" width="177.165" height="590.673"><g fill="#e6e6e6"><path d="M117.803 254.396c9.13 0 16.266 6.61 21.414 19.812 3.882 10 5.823 20.534 5.823 31.604 0 23.21-5.726 34.81-17.185 34.81-8.16 0-16.07-7.572-23.74-22.72-6.797-13.495-10.197-24.86-10.197-34.082 0-8.157 1.893-14.904 5.68-20.245 4.275-6.118 10.34-9.18 18.205-9.18m-15.017 13.54c-2.868 4.507-8.415 10.593-6.443 15.45 3.58 8.816 7.32 17.377 12.173 26.793 4.953 9.903 13.027 17.434 20.212 21.704 6.7-6.6 10.048-14.514 10.048-23.74 0-8.834-1.588-17.917-4.805-27.234-9.15-26.512-28.316-17.48-31.184-12.973M91.42 145.1c2.05 0 19.928 5.51 38.255 12.685 2.305.9 5.703 2.245 10.188 4.04 3.46 1.538 5.642 3.524 6.536 5.958.514 1.412.768 4.296.768 8.65-.894 0-2.178.162-3.844.482-1.664.32-2.95.48-3.845.48-2.817 0-5.96-1.086-9.422-3.27-4.74-2.945-11.467-10.38-12.496-10.762-3.2-1.028-12.685-3.01-20.762-5.962-5.637-2.174-19.992-7.56-23.837-12.3 3.845-3.847 16.407 0 18.456 0m-49.023-19.996c4.613 0 6.92 3.077 6.92 9.23 0 5.64-2.307 8.457-6.92 8.457-2.308 0-5.51-.735-9.613-2.21-4.1-1.47-7.176-2.274-9.227-2.4.767-1.282 4.422-3.717 10.957-7.31.384-.254 1.538-1.406 3.46-3.46 1.41-1.536 2.884-2.306 4.423-2.306M97.756 373.776c2.395 4.057 3.953 9.08 4.678 15.06.24 1.962.464 4.924.672 8.885.208 3.964.432 6.93.67 8.89.813 6.696 4.698 12.565 11.65 17.613 3.082 2.253 3.852 1.876 13.84 6.546-.027-2.442.03-6.865.157-13.266.128-6.4 1.245-10.275 3.345-11.618 1.375 2.37 3.466 8.41 6.278 18.128 2.478 8.486 5.207 14.54 8.182 18.166 4.355 5.27 12.338 7.436 20.104 6.493 8.484-1.028 9.275-7.983 3.51-29.933-.454-1.74-.6-3.824-1.15-6.112-1.283-5.372-2.013-8.77-2.185-10.2-.606-4.998.286-8.46 2.68-10.38 1.796 2.86 3.86 13.89 6.19 33.083.897 7.41.75 14.046-.44 19.895-1.75 8.73-5.616 13.458-11.6 14.184-1.694.205-2.77-1.327-10.913-4.6-8.14-3.267-13.933-4.92-17.383-4.956l-9.608-5.76-21.786-13.16c-5.32-3.52-6.93-12.47-8.673-26.848-.4-3.3-.492-7.048-.277-11.245.072-.91.757-7.197 2.06-18.864M6.543 1.73c.298 2.875 2.582 6.644 6.64 10.922-.263-.086-.54-.185-.8-.263l1.588 1.075c7.177 7.275 19.35 15.92 35.643 24.187L93.767 67.62s-11.32-10.14-26.394-21.84c6.52 2.685 13.483 5.26 20.874 7.642 18.93 6.108 25.89 19.375 32.68 22.708-4.74 2.947-12.236 5.767-22.49 8.456-12.56 3.335-20.635 5.766-24.224 7.308-8.2 3.587-14.096 8.52-17.686 14.802 3.334 2.05 7.497 3.97 12.496 5.768 10.254 3.843 20.57 3.973 27.105 8.07 1.54 1.028 6.39 4.01 17.3 16.728 9.05 10.547 12.41 7.617 16.536 10.767l4.613-1.348 1.154-2.116c-.51-5.252-2.754-8.266-18.262-20.57-13.2-10.25-19.287-15.955-25.954-20.95 10.127-3.974 16.6-9.04 27.107-11.346 14.227-3.076 40.053-1.473 46.716-2.884l-2.114-7.497c-1.28-3.974-2.178-4.423-2.692-5.19-2.818-3.718-7.175-5.578-13.073-5.578-4.87 0-26.4-6.985-41.522-13.262-10.894-4.485-22.88-10-35.952-16.536C52.94 32.424 26.92 13.65 21.923 7.882 18.077 3.397 15.322.77 13.655 0L6.543 1.73z"/><path d="M57.776 295.342c-2.015 3.28 5.192 19.5 3.345 23.07-7.542-21.38-14.277-37.483-14.277-37.483l9.694 34.31c-6.49-4.814-10.462-7.626-11.834-8.364-3.97-2.178-7.56-3.27-10.765-3.27-1.792 0-3.845.866-6.15 2.597-2.308 1.73-3.462 3.43-3.462 5.095 13.072 6.15 21.02 10.063 23.837 11.725 5.873 3.49 10.474 7.36 13.85 11.6l8.445 29.89c-.016 1.115-.075 2.586-.186 4.456-.125 2.18-.19 3.846-.19 4.998 0 11.41 2.496 17.11 7.496 17.11.13 0 .247-.038.373-.045l3.682 13.03c.043-4.156-.32-8.83-1-13.855.748-.46 1.434-1.08 2.04-1.916 1.346-1.86 2.02-3.877 2.02-6.057 0-1.664-1.665-7.177-5-16.533-1.664-4.74-2.432-8.52-2.306-11.345l.384-6.726 18.455 16.536c16.148 14.482 47.613 29.41 55.943 29.41 14.102 0 10.798-8.175 4.52-8.175-7.317 0-43.04-21.954-59.405-33.25-10.787-7.448-21.78-14.487-22.426-23.458-1.212-16.845-7.035-26.68-7.66-29.12-1.98-7.736-6.47-7.82-9.42-4.23M44.792 424.576c-.895 1.797-1.793 3.528-2.69 5.193 0 3.568 5.594 10.854 16.764 21.833-6.004-4.287-12.035-7.943-17.003-9.633l30.313 22.303 25.483 24.13c12.817 12.176 19.223 20.376 19.223 24.606v1.728c-25.63 2.822-39.665 4.55-42.1 5.19-9.355 2.438-16.276 6.153-20.762 11.15 2.95 3.207 5.897 5.258 8.843 6.153 5 1.538 15.638-3.2 16.534-2.69.904 1.745 1.945 3.094 3.266 4.298-.132-.01-.275-.034-.407-.043l.657.265c4.15 3.627 11.043 6.013 25.03 14.087 20.516 11.84 35.216 19.843 42.776 23.303l23.068 14.223c0-8.582-6.022-11.34-18.07-19.8-3.28-2.3-7.512-4.802-12.59-7.48l30.32 12.254s-44.557-25.404-76.632-34.094c-4.598-2.445-8.45-4.726-11.46-6.82 2.05-.512 9.227-1.217 21.532-2.116 19.738-1.41 29.606-4.805 29.606-10.19 0-4.227-10.637-17.11-20.38-27.105l-28.258-29.03c-11.15-11.534-17.56-18.967-19.225-22.3 7.69 0 23.454 8.526 35.758 12.11l22.876 10.575c12.564 7.564 27.238-2.18 16.342-5.767-10.267-3.27-15.695-4.944-19.802-6.152-12.43-5.123-15.572-1.217-20.953-3.652-18.07-8.076-23.26-12.88-27.107-14.418-11.534-4.74-20.056-13.392-25.567-14.42l-5.384 2.308z"/><path d="M38.46 243.526c-1.356-3.76-7.175-21.234-13.768-53.262C19.94 167.172 10.297 158.61 0 158.61c6.387 0 17.056 29.284 25.182 55.01 2.007 6.432 3.67 12.41 5.127 17.985-6.114-20.713-14.903-45.61-24.8-58.48l32.615 89.597c1.206 4.243 2.465 8 3.945 11.272 9.027 20.163 17.68 30.242 25.955 30.242 8.727 0 14.445-9.48 17.15-28.437 3.465-25.278 5.796-42.806 7-52.586 2.857-18.805 9.57-28.803 20.084-28.21 56.286 3.16 63.985 113.318 51.14 149.11-5.288 14.726-4.705 30.542.676 22.227 14.838-22.918 13.1-49.825 12.954-69.483-.105-14.463-11.888-54.412-19.96-77.492l14.292 34.466s-9.807-38.328-21.283-51.634c-9.535-17-26.356-25.25-38.725-25.25-8.874 0-16.25 7.898-22.116 23.698-2.856 7.527-6.468 23.02-10.834 46.492-3.91 20.764-4.195 39.91-11.06 41.98-6.864 2.065-21.665-24.674-28.886-45.59"/></g></svg>